<svg width="41" height="40" xmlns="http://www.w3.org/2000/svg" fill="none">
 <defs>
  <clipPath id="clip0_805_3794">
   <rect id="svg_1" x="13.3564" y="12.9578" fill="white" height="14.2857" width="14.2857"/>
  </clipPath>
 </defs>
 <g>
  <title>Layer 1</title>
  <circle id="svg_2" fill="#f56438" r="20" cy="20" cx="20.5"/>
  <g id="svg_3" clip-path="url(#clip0_805_3794)">
   <path id="svg_4" stroke-width="0.2" stroke="white" fill="white" d="m22.4199,15.2573c0.0882,0.0167 0.1726,0.05 0.2481,0.0987l0.1054,0.0839l4.168,4.168l0.0869,0.1065c0.0756,0.1133 0.1172,0.2474 0.1172,0.3857c0,0.1383 -0.0415,0.2724 -0.1172,0.3857l-0.0869,0.1055l-4.166,4.167l-0.001,-0.001c-0.0318,0.0328 -0.066,0.0631 -0.1035,0.0889l-0.1201,0.0664c-0.0425,0.0183 -0.0868,0.0325 -0.1319,0.042l-0.1367,0.0146c-0.0923,0.0008 -0.1841,-0.0168 -0.2695,-0.0517c-0.0425,-0.0174 -0.083,-0.0392 -0.1211,-0.0645l-0.1074,-0.0879c-0.0651,-0.0652 -0.1165,-0.1432 -0.1514,-0.2285c-0.0348,-0.0852 -0.0525,-0.1765 -0.0517,-0.2685l0.0146,-0.1377c0.0095,-0.0449 0.0238,-0.0886 0.042,-0.1309l0.0664,-0.1211c0.026,-0.0376 0.0558,-0.0725 0.0889,-0.1045l2.9785,-2.9785l-10.2256,0c-0.1382,0 -0.2724,-0.0417 -0.3857,-0.1172l-0.1065,-0.0869c-0.1302,-0.1303 -0.203,-0.307 -0.2031,-0.4912c0,-0.1844 0.0727,-0.3618 0.2031,-0.4922c0.1304,-0.1303 0.3079,-0.2031 0.4922,-0.2031l10.2256,0l-2.9795,-2.9805l-0.001,-0.001c-0.1266,-0.1311 -0.1969,-0.3069 -0.1953,-0.4892l0.0147,-0.1348c0.0273,-0.1317 0.092,-0.254 0.1884,-0.3506l0.1055,-0.0859c0.1119,-0.0749 0.2443,-0.116 0.3809,-0.1172l0.1347,0.0117z"/>
  </g>
 </g>
</svg>